# xmcd
#
# Track frame offsets: 
#        150
#        13401
#        29970
#        47875
#        65893
#        76445
#        95284
#        105691
#        119960
#        133055
#
# Disc length: 1951 seconds
#
# Revision: 1
# Processed by: cddbd v1.5.2PL0 Copyright (c) Steve Scherf et al.
# Submitted via: ExactAudioCopy v1.0b3
#
DISCID=9d079d0a
DTITLE=Glen Campbell - I'll Be Me Soundtrack
DYEAR=2015
DGENRE=Soundtrack
TTITLE0=Glen Campbell and The Wrecking Crew - I'm Not Gonna Miss You
TTITLE1=The Band Perry - Gentle On My Mind
TTITLE2=Ashley Campbell - Remembering
TTITLE3=All I Need Is You
TTITLE4=The Long Walk Home
TTITLE5=Wichita Lineman (Live)
TTITLE6=A Better Place (Live)
TTITLE7=The Band Perry - Gentle On My Mind (Single Version)
TTITLE8=Ashley Campbell - Home Again
TTITLE9=I'm Not Gonna Miss You (Single Version)
EXTD=
EXTT0=
EXTT1=
EXTT2=
EXTT3=
EXTT4=
EXTT5=
EXTT6=
EXTT7=
EXTT8=
EXTT9=
PLAYORDER=
